<svg xmlns="http://www.w3.org/2000/svg" width="1200" height="1200" viewBox="0 0 1200 1200"><defs><radialGradient id="bg" cx="50%" cy="35%" r="75%"><stop offset="0" stop-color="#1d3155"/><stop offset="1" stop-color="#08152b"/></radialGradient><linearGradient id="gold" x1="0" x2="1"><stop offset="0" stop-color="#b98b35"/><stop offset=".5" stop-color="#f3dda0"/><stop offset="1" stop-color="#a9792b"/></linearGradient></defs><rect width="1200" height="1200" fill="url(#bg)"/><rect x="55" y="55" width="1090" height="1090" rx="38" fill="none" stroke="url(#gold)" stroke-width="5"/><rect x="78" y="78" width="1044" height="1044" rx="28" fill="none" stroke="#b98b35" stroke-opacity=".45"/><g fill="#f3dda0"><circle cx="170" cy="205" r="4"/><circle cx="1020" cy="180" r="5"/><circle cx="935" cy="310" r="3"/><circle cx="245" cy="350" r="3"/><circle cx="170" cy="900" r="4"/><circle cx="1030" cy="920" r="4"/><circle cx="910" cy="1000" r="3"/></g><circle cx="600" cy="430" r="150" fill="none" stroke="url(#gold)" stroke-width="4"/><circle cx="600" cy="430" r="118" fill="none" stroke="#f3dda0" stroke-opacity=".35" stroke-width="2"/><path d="M600 300l25 100 100 30-100 30-25 100-25-100-100-30 100-30z" fill="#f3dda0"/><text x="600" y="675" text-anchor="middle" fill="#f3dda0" font-family="Georgia,serif" font-size="42" letter-spacing="8">ZODIADAILY</text><text x="600" y="755" text-anchor="middle" fill="#fff" font-family="Georgia,serif" font-size="66" font-weight="700">Personalized</text><text x="600" y="830" text-anchor="middle" fill="#fff" font-family="Georgia,serif" font-size="66" font-weight="700">Birth-Date Report</text><text x="600" y="910" text-anchor="middle" fill="#d9c58d" font-family="Arial,sans-serif" font-size="26" letter-spacing="4">A DIGITAL KEEPSAKE FOR REFLECTION</text><text x="600" y="1000" text-anchor="middle" fill="#fff" font-family="Arial,sans-serif" font-size="22">Zodiac • Numerology • Birthday Context • AI Reflection</text></svg>